<svg id="Layer_1" data-name="Layer 1" xmlns="http://www.w3.org/2000/svg" viewBox="0 0 1000 1000"><defs><style>.cls-1{fill:#c1272d;}</style></defs><title>01</title><path class="cls-1" d="M339.11,473.71h9.54v18.9l17.49-18.9h12.17l-18.23,18.63,19.44,27H367.05l-13.76-20.09L348.65,504v15.35h-9.54Z"/><path class="cls-1" d="M399.58,520.24q-7.69,0-11.88-4.75t-4.18-13.55q0-8.1,4.26-12.68t11.8-4.58q7.74,0,11.91,4.67t4.18,13.31a7.35,7.35,0,0,1-.16,2h-23a11.72,11.72,0,0,0,1.77,6q1.86,2.49,6.21,2.49a6.68,6.68,0,0,0,3.75-1.15,4.5,4.5,0,0,0,2.06-2.77h9.07a12.93,12.93,0,0,1-5.33,8.08A17.85,17.85,0,0,1,399.58,520.24Zm6.8-21.25a9.24,9.24,0,0,0-1.61-4.75,6.23,6.23,0,0,0-5.31-2.27,6,6,0,0,0-5.25,2.64,11.59,11.59,0,0,0-1.62,4.38Z"/><path class="cls-1" d="M424.12,485.58h8.47v5a18.89,18.89,0,0,1,1.15-1.71q3.3-4.2,9.57-4.19,5.34,0,8.37,3.16t3,8.79v22.74h-8.92V498.25a6.78,6.78,0,0,0-1.35-4.64,5.26,5.26,0,0,0-4.14-1.51,6.83,6.83,0,0,0-5.39,2.11A8.9,8.9,0,0,0,433,500.3v19.07h-8.91Z"/><path class="cls-1" d="M481,519.55c-1.49.13-3.32.19-5.49.19q-4.73,0-6.79-1.69t-2.07-5.55V491.82H462v-6.24h4.69v-9.1h8.92v9.1H481v6.24h-5.43V511a1.6,1.6,0,0,0,.7,1.56,7.38,7.38,0,0,0,2.9.37H481Z"/><path class="cls-1" d="M489.18,510.11h9.53v9.26h-9.53Z"/><path class="cls-1" d="M775.07,510.11h9.53v9.26h-9.53Z"/><path class="cls-1" d="M786.64,505.15h9.53v14.22h-9.53Z"/><path class="cls-1" d="M518.62,519.37H509.7V473.71h10L538,505.77V473.71h8.91v45.66h-9.5l-18.82-32.92Z"/><path class="cls-1" d="M571.32,520.24q-7.7,0-11.88-4.75t-4.17-13.55q0-8.1,4.25-12.68t11.8-4.58q7.74,0,11.91,4.67t4.18,13.31a7.35,7.35,0,0,1-.16,2h-23a11.72,11.72,0,0,0,1.77,6q1.86,2.49,6.21,2.49A6.68,6.68,0,0,0,576,512a4.46,4.46,0,0,0,2.06-2.77h9.07a12.93,12.93,0,0,1-5.33,8.08A17.82,17.82,0,0,1,571.32,520.24Zm6.8-21.25a9.24,9.24,0,0,0-1.61-4.75A6.23,6.23,0,0,0,571.2,492a6,6,0,0,0-5.25,2.64,11.76,11.76,0,0,0-1.62,4.38Z"/><path class="cls-1" d="M611.39,519.55c-1.5.13-3.33.19-5.5.19q-4.73,0-6.79-1.69c-1.38-1.13-2.06-3-2.06-5.55V491.82h-4.69v-6.24H597v-9.1H606v9.1h5.44v6.24H606V511a1.6,1.6,0,0,0,.7,1.56,7.38,7.38,0,0,0,2.9.37h1.84Z"/><path class="cls-1" d="M625.89,519.37l-9.82-33.79h9.45l5.39,24.81h0l5-24.81h8.91l5,24.87h0l5.49-24.87h9l-9.79,33.79h-9.1l-5.19-25.16h0L635,519.37h-9.1Z"/><path class="cls-1" d="M674.32,515.49q-4.68-4.75-4.68-12.83,0-8.27,4.68-13.12t12.59-4.86q8,0,12.64,4.86t4.66,13.12q0,8.07-4.66,12.83t-12.64,4.75Q679,520.24,674.32,515.49ZM693,510.17c1.39-1.73,2.08-4.27,2.08-7.6s-.69-6-2.08-7.78a8.21,8.21,0,0,0-12.1,0q-2.05,2.65-2.06,7.78c0,3.33.69,5.87,2.06,7.6a8.32,8.32,0,0,0,12.1,0Z"/><path class="cls-1" d="M712.94,485.58h8.48v6.05a17.88,17.88,0,0,1,1.05-1.92q3.13-5,8.11-5l2,0v9.1a23.86,23.86,0,0,0-2.67-.13c-2.72,0-4.74.68-6.08,2s-2,3.39-2,6.12v17.55h-8.91Z"/><path class="cls-1" d="M740.55,473.71h8.91v24.67l11.12-12.8h11l-12.2,12.81,12.51,21H761.29l-8.14-14.55-3.69,3.89v10.66h-8.91Z"/><path class="cls-1" d="M258.3,521.8c-1.19-2.14-2.36-4.28-3.53-6.42-.05-.1-.09-.21-.14-.3l-.16.08c-1.56,3.28-3.12,6.57-4.72,9.92,1.15-.5,2.19-1,3.24-1.41a23.17,23.17,0,0,1,5-1.36C258.34,522.26,258.5,522.17,258.3,521.8Zm3.56-33.41a1.93,1.93,0,0,0-1.84,1.93,2,2,0,0,0,1.83,1.85,1.89,1.89,0,1,0,0-3.78Zm-3.92,24.19c1.25,2.27,2.46,4.46,3.73,6.78l3.73-6.78Zm3.87-12.83c-1.38,2.91-2.72,5.72-4.08,8.57h8.4C264.68,505.44,263.28,502.65,261.81,499.75Zm7.36,14.68c-1.46,2.64-2.84,5.14-4.2,7.62,1.66.44,3.29.78,4.87,1.29s3.09,1.19,4.69,1.81Zm0,0c-1.46,2.64-2.84,5.14-4.2,7.62,1.66.44,3.29.78,4.87,1.29s3.09,1.19,4.69,1.81Zm-7.36-14.68c-1.38,2.91-2.72,5.72-4.08,8.57h8.4C264.68,505.44,263.28,502.65,261.81,499.75Zm-3.87,12.83c1.25,2.27,2.46,4.46,3.73,6.78l3.73-6.78Zm3.91-20.41a1.89,1.89,0,1,0,0-3.78,1.93,1.93,0,0,0-1.84,1.93A2,2,0,0,0,261.85,492.17Zm-7.08,23.21c-.05-.1-.09-.21-.14-.3l-.16.08c-1.56,3.28-3.12,6.57-4.72,9.92,1.15-.5,2.19-1,3.24-1.41a23.17,23.17,0,0,1,5-1.36c.33,0,.49-.14.29-.51C257.11,519.66,255.94,517.52,254.77,515.38Zm37-66.13h-58.6L203.83,500l29.3,50.75h58.6L321,500ZM268,473.86a2.4,2.4,0,0,1,3.25-1.29,17.92,17.92,0,0,1,9.1,8,17.3,17.3,0,0,1,2.09,6.21c.11.88.21,1.76.28,2.37a18.73,18.73,0,0,1-1.43,7.07,2.3,2.3,0,0,1-3.07,1.05,2.34,2.34,0,0,1-1.22-2.93,17.69,17.69,0,0,0,.9-3.92,11.67,11.67,0,0,0-.29-3.87,13.45,13.45,0,0,0-4.11-7.07A12.86,12.86,0,0,0,269.4,477,2.36,2.36,0,0,1,268,473.86Zm-10.59.91a2.33,2.33,0,0,1-1.43,2.5,13.86,13.86,0,0,0-5.59,3.72,14.08,14.08,0,0,0-3,5.72,13,13,0,0,0,.35,7.74,2.39,2.39,0,0,1-1.5,3.07,2.29,2.29,0,0,1-2.89-1.36,17.07,17.07,0,0,1-1-8A18.53,18.53,0,0,1,245.1,480a18,18,0,0,1,8.32-6.89,14.45,14.45,0,0,1,1.62-.49A2.5,2.5,0,0,1,257.38,474.77ZM236.47,491a24.19,24.19,0,0,0,.67,4.72c.19.78.46,1.53.71,2.3a2.42,2.42,0,0,1-1,2.74,2.37,2.37,0,0,1-2.87-.29c-.12-.12-.57-.79-.57-.79-.24-.75-.53-1.46-.69-2.2a43.72,43.72,0,0,1-.83-4.4,28,28,0,0,1,.14-7.31,28.79,28.79,0,0,1,1.59-6.08,27.74,27.74,0,0,1,3.24-6.17,28.78,28.78,0,0,1,13.54-10.45,2.4,2.4,0,0,1,2.77.46,2.36,2.36,0,0,1-.79,3.9,25.13,25.13,0,0,0-5.31,2.66,24,24,0,0,0-7.87,8.76,23.46,23.46,0,0,0-2.29,6.37A24.3,24.3,0,0,0,236.47,491Zm47.08,45.61a2,2,0,0,1-2.27.65,2,2,0,0,1-1.25-1.12c-.43-.85-.87-1.69-1.26-2.56a5.13,5.13,0,0,0-1.84-1.86,29.25,29.25,0,0,0-5.68-3.42,25.56,25.56,0,0,0-5.6-1.79,20,20,0,0,0-8.55.14,21.32,21.32,0,0,0-7,3.06c-1.17.78-2.25,1.69-3.4,2.51a4.29,4.29,0,0,0-1.29,1.81c-.31.67-.64,1.34-1,2a2.1,2.1,0,0,1-2.83,1.12,2.13,2.13,0,0,1-.93-2.86c1.62-3.39,3.25-6.77,4.86-10.16,1-2.21,2.08-4.42,3.13-6.63,1.18-2.48,2.38-5,3.56-7.45,1.86-3.89,3.7-7.79,5.56-11.68.35-.74.7-1.49,1.07-2.22.19-.36.17-.6-.22-.83a5.63,5.63,0,0,1-2.59-3.47,6,6,0,0,1,11.35-4.06,11,11,0,0,1,.53,2,6.16,6.16,0,0,1-3,5.64c-.37.23-.37.38-.2.74,1.56,3.08,3.08,6.18,4.63,9.27,1.91,3.84,3.84,7.67,5.76,11.51l5.78,11.61q1.4,2.79,2.81,5.58A2.06,2.06,0,0,1,283.55,536.64Zm7.66-37a2.38,2.38,0,0,1-2.28,1.65,2.27,2.27,0,0,1-2.25-1.72,2.32,2.32,0,0,1,0-1.38,24.39,24.39,0,0,0,1.55-10.73,24,24,0,0,0-1.09-5.34,23.27,23.27,0,0,0-4.17-7.67,23.53,23.53,0,0,0-9.1-6.94,6.67,6.67,0,0,1-1.69-1,2.33,2.33,0,0,1,2.1-3.89,15.92,15.92,0,0,1,2.69,1,28.61,28.61,0,0,1,9.08,7,27.08,27.08,0,0,1,3.88,5.78,29.21,29.21,0,0,1,2.72,8.27c.24,1.57.31,3.17.46,4.75A29.9,29.9,0,0,1,291.21,499.65ZM265,522.05c1.66.44,3.29.78,4.87,1.29s3.09,1.19,4.69,1.81l-5.36-10.72C267.71,517.07,266.33,519.57,265,522.05Zm-3.16-22.3c-1.38,2.91-2.72,5.72-4.08,8.57h8.4C264.68,505.44,263.28,502.65,261.81,499.75Zm-3.87,12.83c1.25,2.27,2.46,4.46,3.73,6.78l3.73-6.78Zm3.91-20.41a1.89,1.89,0,1,0,0-3.78,1.93,1.93,0,0,0-1.84,1.93A2,2,0,0,0,261.85,492.17Zm-7.08,23.21c-.05-.1-.09-.21-.14-.3l-.16.08c-1.56,3.28-3.12,6.57-4.72,9.92,1.15-.5,2.19-1,3.24-1.41a23.17,23.17,0,0,1,5-1.36c.33,0,.49-.14.29-.51C257.11,519.66,255.94,517.52,254.77,515.38Zm3.53,6.42c-1.19-2.14-2.36-4.28-3.53-6.42-.05-.1-.09-.21-.14-.3l-.16.08c-1.56,3.28-3.12,6.57-4.72,9.92,1.15-.5,2.19-1,3.24-1.41a23.17,23.17,0,0,1,5-1.36C258.34,522.26,258.5,522.17,258.3,521.8Zm3.56-33.41a1.93,1.93,0,0,0-1.84,1.93,2,2,0,0,0,1.83,1.85,1.89,1.89,0,1,0,0-3.78Zm-3.92,24.19c1.25,2.27,2.46,4.46,3.73,6.78l3.73-6.78Zm3.87-12.83c-1.38,2.91-2.72,5.72-4.08,8.57h8.4C264.68,505.44,263.28,502.65,261.81,499.75Zm7.36,14.68c-1.46,2.64-2.84,5.14-4.2,7.62,1.66.44,3.29.78,4.87,1.29s3.09,1.19,4.69,1.81Zm0,0c-1.46,2.64-2.84,5.14-4.2,7.62,1.66.44,3.29.78,4.87,1.29s3.09,1.19,4.69,1.81Zm-7.36-14.68c-1.38,2.91-2.72,5.72-4.08,8.57h8.4C264.68,505.44,263.28,502.65,261.81,499.75Zm-3.87,12.83c1.25,2.27,2.46,4.46,3.73,6.78l3.73-6.78Zm3.92-24.19a1.93,1.93,0,0,0-1.84,1.93,2,2,0,0,0,1.83,1.85,1.89,1.89,0,1,0,0-3.78ZM258.3,521.8c-1.19-2.14-2.36-4.28-3.53-6.42-.05-.1-.09-.21-.14-.3l-.16.08c-1.56,3.28-3.12,6.57-4.72,9.92,1.15-.5,2.19-1,3.24-1.41a23.17,23.17,0,0,1,5-1.36C258.34,522.26,258.5,522.17,258.3,521.8Z"/></svg>