<?xml version="1.0" encoding="UTF-8" standalone="no"?>
<!-- Created with Inkscape (http://www.inkscape.org/) -->

<svg
   xmlns:dc="http://purl.org/dc/elements/1.1/"
   xmlns:cc="http://creativecommons.org/ns#"
   xmlns:rdf="http://www.w3.org/1999/02/22-rdf-syntax-ns#"
   xmlns:svg="http://www.w3.org/2000/svg"
   xmlns="http://www.w3.org/2000/svg"
   xmlns:sodipodi="http://sodipodi.sourceforge.net/DTD/sodipodi-0.dtd"
   xmlns:inkscape="http://www.inkscape.org/namespaces/inkscape"
   width="150.29921mm"
   height="26.855207mm"
   viewBox="0 0 150.29921 26.855207"
   version="1.1"
   id="svg8"
   sodipodi:docname="logo.svg"
   inkscape:version="0.92.3 (2405546, 2018-03-11)">
  <defs
     id="defs2">
    <style
       id="style4518">.cls-1{fill:#c1272d;}</style>
  </defs>
  <sodipodi:namedview
     id="base"
     pagecolor="#ffffff"
     bordercolor="#666666"
     borderopacity="1.0"
     inkscape:pageopacity="0.0"
     inkscape:pageshadow="2"
     inkscape:zoom="1.4"
     inkscape:cx="210.16678"
     inkscape:cy="45.002881"
     inkscape:document-units="mm"
     inkscape:current-layer="g4575"
     showgrid="false"
     inkscape:window-width="1920"
     inkscape:window-height="1143"
     inkscape:window-x="0"
     inkscape:window-y="29"
     inkscape:window-maximized="1" />
  <metadata
     id="metadata5">
    <rdf:RDF>
      <cc:Work
         rdf:about="">
        <dc:format>image/svg+xml</dc:format>
        <dc:type
           rdf:resource="http://purl.org/dc/dcmitype/StillImage" />
      </cc:Work>
    </rdf:RDF>
  </metadata>
  <g
     inkscape:label="Layer 1"
     inkscape:groupmode="layer"
     id="layer1"
     transform="translate(-32.007403,-141.45335)">
    <g
       id="g4575"
       transform="matrix(0.26458333,0,0,0.26458333,-21.922617,22.589287)">
      <path
         id="path4524"
         d="m 339.11,473.71 h 9.54 v 18.9 l 17.49,-18.9 h 12.17 l -18.23,18.63 19.44,27 h -12.47 l -13.76,-20.09 -4.64,4.75 v 15.35 h -9.54 z"
         class="cls-1"
         inkscape:connector-curvature="0"
         style="opacity:1;fill:#c1272d"
         inkscape:export-xdpi="90"
         inkscape:export-ydpi="90" />
      <path
         id="path4526"
         d="m 399.58,520.24 q -7.69,0 -11.88,-4.75 -4.19,-4.75 -4.18,-13.55 0,-8.1 4.26,-12.68 4.26,-4.58 11.8,-4.58 7.74,0 11.91,4.67 4.17,4.67 4.18,13.31 a 7.35,7.35 0 0 1 -0.16,2 h -23 a 11.72,11.72 0 0 0 1.77,6 q 1.86,2.49 6.21,2.49 a 6.68,6.68 0 0 0 3.75,-1.15 4.5,4.5 0 0 0 2.06,-2.77 h 9.07 a 12.93,12.93 0 0 1 -5.33,8.08 17.85,17.85 0 0 1 -10.46,2.93 z m 6.8,-21.25 a 9.24,9.24 0 0 0 -1.61,-4.75 6.23,6.23 0 0 0 -5.31,-2.27 6,6 0 0 0 -5.25,2.64 11.59,11.59 0 0 0 -1.62,4.38 z"
         class="cls-1"
         inkscape:connector-curvature="0"
         style="opacity:1;fill:#c1272d"
         inkscape:export-xdpi="90"
         inkscape:export-ydpi="90" />
      <path
         id="path4528"
         d="m 424.12,485.58 h 8.47 v 5 a 18.89,18.89 0 0 1 1.15,-1.71 q 3.3,-4.2 9.57,-4.19 5.34,0 8.37,3.16 3.03,3.16 3,8.79 v 22.74 h -8.92 v -21.12 a 6.78,6.78 0 0 0 -1.35,-4.64 5.26,5.26 0 0 0 -4.14,-1.51 6.83,6.83 0 0 0 -5.39,2.11 8.9,8.9 0 0 0 -1.88,6.09 v 19.07 h -8.91 z"
         class="cls-1"
         inkscape:connector-curvature="0"
         style="opacity:1;fill:#c1272d"
         inkscape:export-xdpi="90"
         inkscape:export-ydpi="90" />
      <path
         id="path4530"
         d="m 481,519.55 c -1.49,0.13 -3.32,0.19 -5.49,0.19 q -4.73,0 -6.79,-1.69 -2.06,-1.69 -2.07,-5.55 V 491.82 H 462 v -6.24 h 4.69 v -9.1 h 8.92 v 9.1 H 481 v 6.24 h -5.43 V 511 a 1.6,1.6 0 0 0 0.7,1.56 7.38,7.38 0 0 0 2.9,0.37 H 481 Z"
         class="cls-1"
         inkscape:connector-curvature="0"
         style="opacity:1;fill:#c1272d"
         inkscape:export-xdpi="90"
         inkscape:export-ydpi="90" />
      <path
         id="path4532"
         d="m 489.18,510.11 h 9.53 v 9.26 h -9.53 z"
         class="cls-1"
         inkscape:connector-curvature="0"
         style="opacity:1;fill:#c1272d"
         inkscape:export-xdpi="90"
         inkscape:export-ydpi="90" />
      <path
         id="path4538"
         d="m 518.62,519.37 h -8.92 v -45.66 h 10 l 18.3,32.06 v -32.06 h 8.91 v 45.66 h -9.5 l -18.82,-32.92 z"
         class="cls-1"
         inkscape:connector-curvature="0"
         style="opacity:1;fill:#c1272d"
         inkscape:export-xdpi="90"
         inkscape:export-ydpi="90" />
      <path
         id="path4540"
         d="m 571.32,520.24 q -7.7,0 -11.88,-4.75 -4.18,-4.75 -4.17,-13.55 0,-8.1 4.25,-12.68 4.25,-4.58 11.8,-4.58 7.74,0 11.91,4.67 4.17,4.67 4.18,13.31 a 7.35,7.35 0 0 1 -0.16,2 h -23 a 11.72,11.72 0 0 0 1.77,6 q 1.86,2.49 6.21,2.49 A 6.68,6.68 0 0 0 576,512 a 4.46,4.46 0 0 0 2.06,-2.77 h 9.07 a 12.93,12.93 0 0 1 -5.33,8.08 17.82,17.82 0 0 1 -10.48,2.93 z m 6.8,-21.25 a 9.24,9.24 0 0 0 -1.61,-4.75 6.23,6.23 0 0 0 -5.31,-2.24 6,6 0 0 0 -5.25,2.64 11.76,11.76 0 0 0 -1.62,4.38 z"
         class="cls-1"
         inkscape:connector-curvature="0"
         style="opacity:1;fill:#c1272d"
         inkscape:export-xdpi="90"
         inkscape:export-ydpi="90" />
      <path
         id="path4542"
         d="m 611.39,519.55 c -1.5,0.13 -3.33,0.19 -5.5,0.19 q -4.73,0 -6.79,-1.69 c -1.38,-1.13 -2.06,-3 -2.06,-5.55 v -20.68 h -4.69 v -6.24 H 597 v -9.1 h 9 v 9.1 h 5.44 v 6.24 H 606 V 511 a 1.6,1.6 0 0 0 0.7,1.56 7.38,7.38 0 0 0 2.9,0.37 h 1.84 z"
         class="cls-1"
         inkscape:connector-curvature="0"
         style="opacity:1;fill:#c1272d"
         inkscape:export-xdpi="90"
         inkscape:export-ydpi="90" />
      <path
         id="path4544"
         d="m 625.89,519.37 -9.82,-33.79 h 9.45 l 5.39,24.81 v 0 l 5,-24.81 h 8.91 l 5,24.87 v 0 l 5.49,-24.87 h 9 l -9.79,33.79 h -9.1 l -5.19,-25.16 v 0 L 635,519.37 h -9.1 z"
         class="cls-1"
         inkscape:connector-curvature="0"
         style="opacity:1;fill:#c1272d"
         inkscape:export-xdpi="90"
         inkscape:export-ydpi="90" />
      <path
         id="path4546"
         d="m 674.32,515.49 q -4.68,-4.75 -4.68,-12.83 0,-8.27 4.68,-13.12 4.68,-4.85 12.59,-4.86 8,0 12.64,4.86 4.64,4.86 4.66,13.12 0,8.07 -4.66,12.83 -4.66,4.76 -12.64,4.75 -7.91,0 -12.59,-4.75 z M 693,510.17 c 1.39,-1.73 2.08,-4.27 2.08,-7.6 0,-3.33 -0.69,-6 -2.08,-7.78 a 8.21,8.21 0 0 0 -12.1,0 q -2.05,2.65 -2.06,7.78 c 0,3.33 0.69,5.87 2.06,7.6 a 8.32,8.32 0 0 0 12.1,0 z"
         class="cls-1"
         inkscape:connector-curvature="0"
         style="opacity:1;fill:#c1272d"
         inkscape:export-xdpi="90"
         inkscape:export-ydpi="90" />
      <path
         id="path4548"
         d="m 712.94,485.58 h 8.48 v 6.05 a 17.88,17.88 0 0 1 1.05,-1.92 q 3.13,-5 8.11,-5 h 2 v 9.1 a 23.86,23.86 0 0 0 -2.67,-0.13 c -2.72,0 -4.74,0.68 -6.08,2 -1.34,1.32 -2,3.39 -2,6.12 v 17.55 h -8.91 z"
         class="cls-1"
         inkscape:connector-curvature="0"
         style="opacity:1;fill:#c1272d"
         inkscape:export-xdpi="90"
         inkscape:export-ydpi="90" />
      <path
         id="path4550"
         d="m 740.55,473.71 h 8.91 v 24.67 l 11.12,-12.8 h 11 l -12.2,12.81 12.51,21 h -10.6 l -8.14,-14.55 -3.69,3.89 v 10.66 h -8.91 z"
         class="cls-1"
         inkscape:connector-curvature="0"
         style="opacity:1;fill:#c1272d"
         inkscape:export-xdpi="90"
         inkscape:export-ydpi="90" />
      <path
         id="path4552"
         d="m 258.3,521.8 c -1.19,-2.14 -2.36,-4.28 -3.53,-6.42 -0.05,-0.1 -0.09,-0.21 -0.14,-0.3 l -0.16,0.08 c -1.56,3.28 -3.12,6.57 -4.72,9.92 1.15,-0.5 2.19,-1 3.24,-1.41 a 23.17,23.17 0 0 1 5,-1.36 c 0.35,-0.05 0.51,-0.14 0.31,-0.51 z m 3.56,-33.41 a 1.93,1.93 0 0 0 -1.84,1.93 2,2 0 0 0 1.83,1.85 1.89,1.89 0 1 0 0,-3.78 z m -3.92,24.19 c 1.25,2.27 2.46,4.46 3.73,6.78 l 3.73,-6.78 z m 3.87,-12.83 c -1.38,2.91 -2.72,5.72 -4.08,8.57 h 8.4 c -1.45,-2.88 -2.85,-5.67 -4.32,-8.57 z m 7.36,14.68 c -1.46,2.64 -2.84,5.14 -4.2,7.62 1.66,0.44 3.29,0.78 4.87,1.29 1.58,0.51 3.09,1.19 4.69,1.81 z m 0,0 c -1.46,2.64 -2.84,5.14 -4.2,7.62 1.66,0.44 3.29,0.78 4.87,1.29 1.58,0.51 3.09,1.19 4.69,1.81 z m -7.36,-14.68 c -1.38,2.91 -2.72,5.72 -4.08,8.57 h 8.4 c -1.45,-2.88 -2.85,-5.67 -4.32,-8.57 z m -3.87,12.83 c 1.25,2.27 2.46,4.46 3.73,6.78 l 3.73,-6.78 z m 3.91,-20.41 a 1.89,1.89 0 1 0 0,-3.78 1.93,1.93 0 0 0 -1.84,1.93 2,2 0 0 0 1.84,1.85 z m -7.08,23.21 c -0.05,-0.1 -0.09,-0.21 -0.14,-0.3 l -0.16,0.08 c -1.56,3.28 -3.12,6.57 -4.72,9.92 1.15,-0.5 2.19,-1 3.24,-1.41 a 23.17,23.17 0 0 1 5,-1.36 c 0.33,0 0.49,-0.14 0.29,-0.51 -1.17,-2.14 -2.34,-4.28 -3.51,-6.42 z m 37,-66.13 h -58.6 l -29.34,50.75 29.3,50.75 h 58.6 L 321,500 Z M 268,473.86 a 2.4,2.4 0 0 1 3.25,-1.29 17.92,17.92 0 0 1 9.1,8 17.3,17.3 0 0 1 2.09,6.21 c 0.11,0.88 0.21,1.76 0.28,2.37 a 18.73,18.73 0 0 1 -1.43,7.07 2.3,2.3 0 0 1 -3.07,1.05 2.34,2.34 0 0 1 -1.22,-2.93 17.69,17.69 0 0 0 0.9,-3.92 11.67,11.67 0 0 0 -0.29,-3.87 13.45,13.45 0 0 0 -4.11,-7.07 12.86,12.86 0 0 0 -4.1,-2.48 2.36,2.36 0 0 1 -1.4,-3.14 z m -10.59,0.91 a 2.33,2.33 0 0 1 -1.43,2.5 13.86,13.86 0 0 0 -5.59,3.72 14.08,14.08 0 0 0 -3,5.72 13,13 0 0 0 0.35,7.74 2.39,2.39 0 0 1 -1.5,3.07 2.29,2.29 0 0 1 -2.89,-1.36 17.07,17.07 0 0 1 -1,-8 18.53,18.53 0 0 1 2.75,-8.16 18,18 0 0 1 8.32,-6.89 14.45,14.45 0 0 1 1.62,-0.49 2.5,2.5 0 0 1 2.34,2.15 z M 236.47,491 a 24.19,24.19 0 0 0 0.67,4.72 c 0.19,0.78 0.46,1.53 0.71,2.3 a 2.42,2.42 0 0 1 -1,2.74 2.37,2.37 0 0 1 -2.87,-0.29 c -0.12,-0.12 -0.57,-0.79 -0.57,-0.79 -0.24,-0.75 -0.53,-1.46 -0.69,-2.2 a 43.72,43.72 0 0 1 -0.83,-4.4 28,28 0 0 1 0.14,-7.31 28.79,28.79 0 0 1 1.59,-6.08 27.74,27.74 0 0 1 3.24,-6.17 28.78,28.78 0 0 1 13.54,-10.45 2.4,2.4 0 0 1 2.77,0.46 2.36,2.36 0 0 1 -0.79,3.9 25.13,25.13 0 0 0 -5.31,2.66 24,24 0 0 0 -7.87,8.76 23.46,23.46 0 0 0 -2.29,6.37 24.3,24.3 0 0 0 -0.44,5.78 z m 47.08,45.61 a 2,2 0 0 1 -2.27,0.65 2,2 0 0 1 -1.25,-1.12 c -0.43,-0.85 -0.87,-1.69 -1.26,-2.56 a 5.13,5.13 0 0 0 -1.84,-1.86 29.25,29.25 0 0 0 -5.68,-3.42 25.56,25.56 0 0 0 -5.6,-1.79 20,20 0 0 0 -8.55,0.14 21.32,21.32 0 0 0 -7,3.06 c -1.17,0.78 -2.25,1.69 -3.4,2.51 a 4.29,4.29 0 0 0 -1.29,1.81 c -0.31,0.67 -0.64,1.34 -1,2 a 2.1,2.1 0 0 1 -2.83,1.12 2.13,2.13 0 0 1 -0.93,-2.86 c 1.62,-3.39 3.25,-6.77 4.86,-10.16 1,-2.21 2.08,-4.42 3.13,-6.63 1.18,-2.48 2.38,-5 3.56,-7.45 1.86,-3.89 3.7,-7.79 5.56,-11.68 0.35,-0.74 0.7,-1.49 1.07,-2.22 0.19,-0.36 0.17,-0.6 -0.22,-0.83 a 5.63,5.63 0 0 1 -2.59,-3.47 6.027149,6.027149 0 0 1 11.35,-4.06 11,11 0 0 1 0.53,2 6.16,6.16 0 0 1 -3,5.64 c -0.37,0.23 -0.37,0.38 -0.2,0.74 1.56,3.08 3.08,6.18 4.63,9.27 1.91,3.84 3.84,7.67 5.76,11.51 l 5.78,11.61 q 1.4,2.79 2.81,5.58 a 2.06,2.06 0 0 1 -0.13,2.5 z m 7.66,-37 a 2.38,2.38 0 0 1 -2.28,1.65 2.27,2.27 0 0 1 -2.25,-1.72 2.32,2.32 0 0 1 0,-1.38 24.39,24.39 0 0 0 1.55,-10.73 24,24 0 0 0 -1.09,-5.34 23.27,23.27 0 0 0 -4.17,-7.67 23.53,23.53 0 0 0 -9.1,-6.94 6.67,6.67 0 0 1 -1.69,-1 2.33,2.33 0 0 1 2.1,-3.89 15.92,15.92 0 0 1 2.69,1 28.61,28.61 0 0 1 9.08,7 27.08,27.08 0 0 1 3.88,5.78 29.21,29.21 0 0 1 2.72,8.27 c 0.24,1.57 0.31,3.17 0.46,4.75 a 29.9,29.9 0 0 1 -1.9,10.26 z M 265,522.05 c 1.66,0.44 3.29,0.78 4.87,1.29 1.58,0.51 3.09,1.19 4.69,1.81 l -5.36,-10.72 c -1.49,2.64 -2.87,5.14 -4.2,7.62 z m -3.16,-22.3 c -1.38,2.91 -2.72,5.72 -4.08,8.57 h 8.4 c -1.48,-2.88 -2.88,-5.67 -4.35,-8.57 z m -3.87,12.83 c 1.25,2.27 2.46,4.46 3.73,6.78 l 3.73,-6.78 z m 3.91,-20.41 a 1.89,1.89 0 1 0 0,-3.78 1.93,1.93 0 0 0 -1.84,1.93 2,2 0 0 0 1.81,1.85 z m -7.08,23.21 c -0.05,-0.1 -0.09,-0.21 -0.14,-0.3 l -0.16,0.08 c -1.56,3.28 -3.12,6.57 -4.72,9.92 1.15,-0.5 2.19,-1 3.24,-1.41 a 23.17,23.17 0 0 1 5,-1.36 c 0.33,0 0.49,-0.14 0.29,-0.51 -1.2,-2.14 -2.37,-4.28 -3.54,-6.42 z m 3.53,6.42 c -1.19,-2.14 -2.36,-4.28 -3.53,-6.42 -0.05,-0.1 -0.09,-0.21 -0.14,-0.3 l -0.16,0.08 c -1.56,3.28 -3.12,6.57 -4.72,9.92 1.15,-0.5 2.19,-1 3.24,-1.41 a 23.17,23.17 0 0 1 5,-1.36 c 0.32,-0.05 0.48,-0.14 0.28,-0.51 z m 3.56,-33.41 a 1.93,1.93 0 0 0 -1.84,1.93 2,2 0 0 0 1.83,1.85 1.89,1.89 0 1 0 0,-3.78 z m -3.92,24.19 c 1.25,2.27 2.46,4.46 3.73,6.78 l 3.73,-6.78 z m 3.87,-12.83 c -1.38,2.91 -2.72,5.72 -4.08,8.57 h 8.4 c -1.48,-2.88 -2.88,-5.67 -4.35,-8.57 z m 7.36,14.68 c -1.46,2.64 -2.84,5.14 -4.2,7.62 1.66,0.44 3.29,0.78 4.87,1.29 1.58,0.51 3.09,1.19 4.69,1.81 z m 0,0 c -1.46,2.64 -2.84,5.14 -4.2,7.62 1.66,0.44 3.29,0.78 4.87,1.29 1.58,0.51 3.09,1.19 4.69,1.81 z m -7.36,-14.68 c -1.38,2.91 -2.72,5.72 -4.08,8.57 h 8.4 c -1.48,-2.88 -2.88,-5.67 -4.35,-8.57 z m -3.87,12.83 c 1.25,2.27 2.46,4.46 3.73,6.78 l 3.73,-6.78 z m 3.92,-24.19 a 1.93,1.93 0 0 0 -1.84,1.93 2,2 0 0 0 1.83,1.85 1.89,1.89 0 1 0 0,-3.78 z m -3.59,33.41 c -1.19,-2.14 -2.36,-4.28 -3.53,-6.42 -0.05,-0.1 -0.09,-0.21 -0.14,-0.3 l -0.16,0.08 c -1.56,3.28 -3.12,6.57 -4.72,9.92 1.15,-0.5 2.19,-1 3.24,-1.41 a 23.17,23.17 0 0 1 5,-1.36 c 0.35,-0.05 0.51,-0.14 0.31,-0.51 z"
         class="cls-1"
         inkscape:connector-curvature="0"
         style="opacity:1;fill:#c1272d"
         inkscape:export-xdpi="90"
         inkscape:export-ydpi="90" />
    </g>
  </g>
</svg>
